
<svg fill="none" height="38" width="225" xmlns="http://www.w3.org/2000/svg"><clipPath id="a"><path d="M0 0h225v38H0z"/></clipPath><g clip-path="url(#a)" fill="#fff"><path d="M73.188 32.707c-.23-.208-.563-.41-1.001-.624 1.203-.163 2.092-.551 2.67-1.164.58-.613.867-1.362.867-2.25 0-.692-.175-1.322-.523-1.896-.349-.568-.816-.967-1.395-1.192-.585-.225-1.434-.338-2.553-.338h-5.56v12.549h1.658v-5.574h1.923c.427 0 .737.022.922.062a2.5 2.5 0 0 1 .76.332c.247.163.528.438.843.838.315.4.714.973 1.197 1.726l1.66 2.61h2.085l-2.181-3.414a8.595 8.595 0 0 0-1.378-1.67zm-2.266-1.923h-3.57v-4.151h3.969c.928 0 1.608.19 2.041.573s.647.872.647 1.463c0 .405-.113.782-.332 1.125-.22.348-.545.596-.973.753-.427.158-1.023.237-1.782.237zM81.858 28.494c-1.254 0-2.278.422-3.065 1.266s-1.18 2.03-1.18 3.56.387 2.627 1.169 3.443c.776.82 1.833 1.231 3.16 1.231 1.057 0 1.923-.258 2.603-.77.68-.512 1.142-1.238 1.395-2.166l-1.592-.197c-.236.653-.55 1.125-.95 1.423-.399.299-.883.445-1.445.445-.759 0-1.394-.265-1.9-.793-.506-.529-.788-1.294-.85-2.295h6.776c0-.18.011-.32.011-.41 0-1.503-.388-2.667-1.152-3.494-.77-.826-1.76-1.243-2.98-1.243zm-2.564 3.876c.05-.793.32-1.429.798-1.901.484-.473 1.074-.71 1.782-.71.782 0 1.417.299 1.907.89.32.382.511.956.579 1.72h-5.072zM95.229 33.984v-2.053c0-.686-.022-1.159-.079-1.423-.09-.422-.253-.77-.478-1.052s-.584-.506-1.068-.686-1.113-.276-1.89-.276-1.467.107-2.063.321-1.046.517-1.36.917c-.315.4-.54.917-.675 1.564l1.507.208c.163-.642.421-1.097.764-1.35.343-.253.883-.383 1.603-.383.776 0 1.36.174 1.754.523.293.259.439.703.439 1.328 0 .056 0 .19-.011.405-.585.202-1.502.382-2.744.528-.613.073-1.069.152-1.372.231-.411.118-.782.281-1.108.506s-.59.518-.799.889a2.487 2.487 0 0 0-.303 1.22c0 .76.27 1.384.804 1.868.54.49 1.304.731 2.3.731.601 0 1.17-.101 1.698-.298.528-.197 1.08-.54 1.647-1.03.045.428.146.805.31 1.12h1.608a3.38 3.38 0 0 1-.388-1.091c-.068-.383-.102-1.288-.102-2.717zm-1.558-.186c0 .681-.084 1.193-.247 1.542-.22.45-.557.804-1.018 1.063-.46.258-.99.388-1.585.388-.596 0-1.052-.135-1.367-.41a1.325 1.325 0 0 1-.466-1.03 1.31 1.31 0 0 1 .82-1.232c.265-.112.709-.22 1.344-.31 1.12-.157 1.957-.354 2.514-.584v.568zM99.126 25.243h-1.541v12.549h1.54zM108.274 32.038h6.939V30.57h-6.939v-3.847h7.411v-1.48h-9.07v12.549h9.357v-1.48h-7.698zM123.619 32.994c-.433-.185-1.192-.422-2.283-.714-.753-.208-1.209-.338-1.36-.394-.27-.107-.467-.247-.591-.41a.848.848 0 0 1-.185-.54c0-.315.151-.585.449-.822.304-.236.81-.348 1.519-.348.596 0 1.062.135 1.388.393.327.265.529.63.597 1.097l1.506-.208c-.095-.585-.275-1.057-.528-1.406-.259-.349-.652-.63-1.192-.833-.54-.202-1.164-.309-1.878-.309-.473 0-.917.062-1.333.186-.416.123-.742.27-.978.45a2.421 2.421 0 0 0-1.035 1.985c0 .444.113.855.338 1.22.224.372.556.659.995.867.438.208 1.22.455 2.35.742.838.214 1.361.388 1.575.523a.93.93 0 0 1 .455.822c0 .388-.174.725-.512 1.012-.343.287-.866.433-1.574.433-.709 0-1.248-.163-1.636-.49-.388-.325-.63-.792-.714-1.405l-1.524.241c.168.962.568 1.693 1.186 2.183.619.49 1.518.737 2.699.737.714 0 1.35-.124 1.918-.372s.995-.601 1.298-1.051c.298-.456.45-.94.45-1.452 0-.511-.123-.961-.371-1.316a2.338 2.338 0 0 0-1.012-.81zM129.518 36.476c-.225 0-.405-.04-.529-.113s-.214-.174-.264-.298c-.057-.123-.079-.405-.079-.85v-5.314h1.546v-1.198h-1.546v-3.178l-1.529.922v2.25h-1.131v1.198h1.131v5.23c0 .923.061 1.53.185 1.818.124.287.343.523.652.697.31.175.743.265 1.299.265.343 0 .731-.045 1.164-.135l-.219-1.362a5.2 5.2 0 0 1-.675.062zM139.06 33.984v-2.053c0-.686-.022-1.159-.079-1.423-.09-.422-.253-.77-.478-1.052s-.584-.506-1.068-.686-1.113-.276-1.889-.276-1.468.107-2.064.321-1.046.517-1.361.917c-.314.4-.539.917-.674 1.564l1.507.208c.163-.642.421-1.097.764-1.35.343-.253.877-.383 1.603-.383.776 0 1.361.174 1.754.523.293.259.439.703.439 1.328 0 .056 0 .19-.011.405-.585.202-1.502.382-2.744.528-.613.073-1.069.152-1.372.231-.411.118-.782.281-1.108.506s-.596.518-.799.889a2.507 2.507 0 0 0-.303 1.22c0 .76.27 1.384.804 1.868.534.49 1.304.731 2.3.731.601 0 1.169-.101 1.698-.298.528-.203 1.079-.54 1.647-1.03.045.428.146.805.309 1.12h1.609a3.232 3.232 0 0 1-.388-1.091c-.068-.383-.102-1.288-.102-2.717zm-1.557-.186c0 .681-.085 1.193-.248 1.542-.219.45-.557.804-1.018 1.063-.461.258-.989.388-1.585.388s-1.052-.135-1.367-.41-.466-.62-.466-1.03c0-.27.073-.512.213-.731.141-.22.349-.388.608-.501.258-.112.708-.22 1.343-.31 1.119-.157 1.957-.354 2.514-.584v.568zM144.138 36.476c-.231 0-.405-.04-.529-.113s-.214-.174-.264-.298c-.056-.123-.079-.405-.079-.85v-5.314h1.546v-1.198h-1.546v-3.178l-1.529.922v2.25h-1.131v1.198h1.131v5.23c0 .923.061 1.53.185 1.818.124.287.343.523.652.697.31.175.743.265 1.299.265.343 0 .731-.045 1.164-.135l-.225-1.362c-.281.04-.506.062-.674.062zM150.053 28.494c-1.254 0-2.277.422-3.065 1.266-.787.844-1.18 2.03-1.18 3.56s.388 2.627 1.169 3.443c.782.82 1.833 1.231 3.16 1.231 1.057 0 1.923-.258 2.604-.77.68-.512 1.141-1.238 1.394-2.166l-1.591-.197c-.231.653-.551 1.125-.95 1.423-.4.299-.883.445-1.446.445-.759 0-1.388-.265-1.9-.793-.506-.529-.793-1.294-.849-2.295h6.775c0-.18.012-.32.012-.41 0-1.503-.388-2.667-1.153-3.494-.77-.826-1.76-1.243-2.98-1.243zm-2.57 3.876c.051-.793.321-1.429.799-1.901.483-.473 1.074-.71 1.782-.71.782 0 1.417.299 1.906.89.321.382.512.956.585 1.72h-5.077zM78.417 10.653c0-.799-.197-1.524-.585-2.165-.388-.647-1.006-1.187-1.861-1.62-.85-.439-2.26-.866-4.234-1.294-.798-.163-1.299-.343-1.513-.54-.213-.185-.326-.394-.326-.624 0-.32.13-.59.394-.816.264-.225.663-.332 1.192-.332.63 0 1.13.147 1.49.445.365.298.602.776.714 1.434l4.251-.247c-.191-1.514-.77-2.622-1.749-3.319-.972-.697-2.395-1.04-4.262-1.04-1.518 0-2.716.19-3.587.568-.872.382-1.524.91-1.957 1.574a3.813 3.813 0 0 0-.652 2.132c0 1.148.421 2.087 1.27 2.824.844.737 2.25 1.327 4.229 1.771 1.209.265 1.98.546 2.31.85.333.298.496.641.496 1.018 0 .4-.175.748-.518 1.052-.348.303-.849.455-1.49.455-.866 0-1.53-.292-1.99-.883-.287-.371-.478-.9-.568-1.597l-4.29.27c.129 1.473.669 2.694 1.625 3.65.956.962 2.67 1.434 5.15 1.434 1.417 0 2.587-.202 3.509-.613.933-.41 1.653-1.006 2.17-1.8a4.63 4.63 0 0 0 .776-2.592zM141.269 11.857c0-1.699.214-2.852.63-3.476a1.412 1.412 0 0 1 1.237-.658c.276 0 .658.095 1.136.298l1.046-2.419v9.14c0 .703-.09 1.176-.265 1.412-.18.236-.438.354-.787.354-.152 0-.393-.034-.72-.101l-.607 2.953c1.164.236 2.137.349 2.918.349.951 0 1.682-.17 2.188-.512.511-.338.86-.776 1.051-1.322.191-.551.281-1.474.281-2.79V4.815h-4.065v.225c-.63-.304-1.214-.462-1.754-.462-.568 0-1.052.141-1.44.422-.382.281-.764.805-1.13 1.553V4.82h-3.79v10.586h4.066v-3.55zM149.384.782h-4.066v2.79h4.066zM82.567 10.321c0-.962.152-1.637.46-2.002.299-.371.704-.557 1.193-.557.444 0 .787.135 1.034.416.242.276.366.743.366 1.406v5.827h4.065V8.673c0-1.39-.309-2.418-.944-3.093-.636-.67-1.502-1.007-2.604-1.007-.742 0-1.389.118-1.934.371-.54.247-1.09.652-1.636 1.226V.782h-4.054v14.624h4.054v-5.09zM154.247.782h-4.054v2.761h4.054zM154.247 4.815h-4.054V15.41h4.054zM101.37 13.15V8.47c0-.494-.101-1.017-.298-1.569-.203-.545-.472-.967-.815-1.27-.49-.434-1.103-.715-1.845-.856-.73-.135-1.71-.202-2.924-.202-.753 0-1.462.056-2.108.168-.647.113-1.164.276-1.53.479-.523.286-.916.624-1.192 1.012s-.483.922-.63 1.603l3.87.405c.162-.456.365-.77.629-.934.332-.208.826-.32 1.49-.32.523 0 .883.101 1.09.298.209.202.304.551.304 1.052-.5.196-.984.36-1.434.483-.45.124-1.433.338-2.957.647-1.265.253-2.137.636-2.603 1.153-.473.518-.709 1.181-.709 1.986 0 .86.326 1.58.978 2.16.653.585 1.614.877 2.874.877.95 0 1.782-.146 2.496-.439.523-.22 1.052-.579 1.58-1.096.045.303.096.534.14.675.046.14.147.348.299.624h3.801c-.214-.445-.349-.799-.411-1.086-.061-.281-.095-.675-.095-1.17zm-3.964-2.126c0 .5-.079.911-.242 1.232-.163.315-.444.585-.827.804-.393.22-.804.326-1.26.326-.455 0-.753-.106-.983-.303a1.016 1.016 0 0 1-.332-.782c0-.281.113-.529.343-.748.22-.214.737-.433 1.558-.647a19.62 19.62 0 0 0 1.737-.529v.653zM137.114 10.08c0-1.452-.433-2.672-1.305-3.662-1.085-1.232-2.682-1.845-4.796-1.845-1.85 0-3.318.523-4.408 1.569a5.138 5.138 0 0 0-1.4 2.29 5.059 5.059 0 0 0-1.086-2.014c-1.085-1.232-2.682-1.845-4.796-1.845-1.85 0-3.318.523-4.408 1.569a5.208 5.208 0 0 0-1.378 2.222 5.992 5.992 0 0 0-.95-2.166c-.776-1.08-1.873-1.625-3.284-1.625-.72 0-1.366.152-1.957.467-.438.23-.916.68-1.445 1.338V4.81h-3.79v14.63h4.088v-5.062c.405.421.866.736 1.378.95a4.507 4.507 0 0 0 1.709.315c1.282 0 2.35-.461 3.194-1.39.534-.584.894-1.338 1.091-2.26.303.91.849 1.693 1.642 2.35 1.051.867 2.418 1.294 4.116 1.294 1.906 0 3.396-.523 4.475-1.563a5.13 5.13 0 0 0 1.395-2.306c.287 1 .855 1.861 1.704 2.57 1.051.866 2.423 1.294 4.116 1.294 1.906 0 3.396-.523 4.475-1.564 1.08-1.04 1.62-2.374 1.62-4.005zm-27.901 1.951c-.315.388-.714.585-1.186.585-.535 0-.979-.208-1.333-.608-.354-.404-.523-1.029-.523-1.867 0-.911.169-1.57.512-1.974.348-.405.776-.613 1.293-.613.478 0 .883.202 1.215.602.331.405.5 1.035.5 1.89 0 .933-.157 1.591-.478 1.98zm11.572.203c-.371.444-.849.669-1.428.669s-1.063-.225-1.445-.68c-.383-.45-.574-1.148-.574-2.093 0-.945.197-1.626.579-2.081.388-.45.872-.68 1.468-.68.557 0 1.029.224 1.406.669.371.45.562 1.136.562 2.053 0 .984-.186 1.698-.562 2.143zm11.69 0c-.371.444-.855.669-1.434.669s-1.063-.225-1.439-.68c-.383-.45-.574-1.148-.574-2.093 0-.945.197-1.626.579-2.081.388-.45.872-.68 1.468-.68.557 0 1.023.224 1.406.669.376.45.567 1.136.567 2.053 0 .984-.185 1.698-.562 2.143zM220.142.518h-4.066v2.79h4.066zM215.402 15.141V8.41c0-1.395-.315-2.43-.951-3.1-.635-.669-1.512-1.006-2.637-1.006-.826 0-1.529.157-2.108.455-.579.304-1.147.805-1.71 1.513v-1.72h-3.778v10.59h4.054v-5.084c0-.962.152-1.637.455-2.003a1.47 1.47 0 0 1 1.192-.556c.445 0 .788.135 1.041.416.241.275.365.748.365 1.412v5.827h4.071zM225 .518h-4.049v2.761H225zM225 4.55h-4.049v10.591H225z"/><path d="M216.076 14.478c0 .703-.09 1.175-.27 1.406-.174.236-.438.354-.776.354-.152 0-.399-.034-.72-.095l-.607 2.953c1.158.236 2.131.348 2.913.348.95 0 1.681-.168 2.193-.512a2.642 2.642 0 0 0 1.051-1.327c.191-.546.287-1.474.287-2.784V4.55h-4.065v9.927zM191.853.518h-4.065v14.624h4.065zM182.244 12.886V8.212c0-.5-.101-1.018-.298-1.57-.203-.545-.472-.967-.815-1.27-.49-.434-1.108-.72-1.845-.856-.731-.14-1.709-.208-2.929-.208-.759 0-1.462.057-2.109.17-.646.112-1.164.275-1.529.483-.523.281-.911.619-1.187 1.007-.275.388-.483.922-.629 1.603l3.868.41c.158-.455.366-.77.63-.933.332-.214.826-.321 1.484-.321.523 0 .883.101 1.091.298.208.203.304.546.304 1.046-.501.197-.979.36-1.428.484-.45.124-1.44.337-2.958.641-1.265.253-2.137.636-2.609 1.159-.472.517-.703 1.181-.703 1.985 0 .855.326 1.575.978 2.166.653.585 1.614.877 2.874.877.95 0 1.782-.146 2.496-.444.523-.22 1.052-.58 1.58-1.091.051.303.096.528.141.675.045.14.146.348.298.624h3.801c-.214-.439-.349-.799-.416-1.08-.062-.281-.096-.675-.096-1.176zm-3.959-2.126c0 .506-.073.917-.236 1.232s-.438.585-.826.804c-.388.22-.81.326-1.254.326s-.759-.101-.984-.304a1.022 1.022 0 0 1-.332-.781c0-.282.112-.53.337-.749.22-.213.743-.427 1.564-.646.601-.152 1.18-.332 1.737-.529v.647zM186.973.518h-4.066v14.624h4.066zM198.078 4.308c-1.85 0-3.317.53-4.408 1.575-1.086 1.046-1.631 2.38-1.631 3.994 0 1.738.641 3.138 1.929 4.207 1.046.866 2.423 1.3 4.121 1.3 1.906 0 3.397-.524 4.476-1.559 1.074-1.046 1.614-2.373 1.614-4.005 0-1.45-.433-2.671-1.299-3.661-1.08-1.232-2.682-1.85-4.802-1.85zm1.468 7.667c-.377.444-.849.669-1.434.669s-1.057-.23-1.44-.68c-.382-.45-.573-1.148-.573-2.099 0-.95.197-1.625.579-2.075.388-.456.871-.68 1.462-.68.557 0 1.029.224 1.4.674.377.45.574 1.137.574 2.048 0 .984-.192 1.698-.568 2.143zM170.025 1.688c-.815-.782-2.036-1.17-3.666-1.17h-7.49v14.624h4.527V9.714h2.468c1.816 0 3.166-.416 4.054-1.249.883-.832 1.327-1.985 1.327-3.465s-.405-2.548-1.22-3.318zM166.331 6.3c-.349.303-.962.45-1.828.45h-1.107V3.493h1.287c.844 0 1.417.158 1.721.478.303.315.455.709.455 1.164 0 .456-.174.861-.528 1.16zM19.49 23.736c.039-.017.117-.05.168-.079V22.38a3.732 3.732 0 0 0-.22.085L5.675 27.836l2.047.101 10.582-3.74c.4-.14.798-.292 1.192-.461zM35.846 23.067v5.338l13.455-.608L35.863 22.6c-.012.157-.012.365-.017.472z"/><path d="M27.946 29.535V16.03c.096-4.005 2.615-3.937 5.668-2.745h.011l14.985 6.57c.011-.31.011-.607.006-.922 0-.186-.034-.355-.18-.484-.259-.236-1.001-.568-1.338-.737L27.783 7.121 7.243 18.674c-.107.056-.518.264-.625.36 0 .287-.005.568-.01.85l15.142-6.84c1.029-.456 2.367-.664 3.452-.31 1.9.619 2.345 2.599 2.277 4.382v9.18l-.01.033c-.09.945 0 1.67-.338 2.621-.495 1.429-1.653 2.267-3.031 2.767h-.017L3.908 37.9h8.137l13.41-3.881 3.998 2.154 4.026-1.13-4.026-2.504c-1.186-.736-1.53-1.625-1.518-3.009z"/><path d="m52.974 13.33-.017-.01-.023-.012C44.776 8.825 36.554 4.432 28.362 0v5.883l19.371 10.62c.5.258 1.215.568 1.62.939.432.388.624.905.63 1.485 0 .388 0 .754-.012 1.142v.062c-.118.871-.9 1.36-1.737 1.057h-.023l-15.114-6.631c-.709-.276-2.446-.934-3.166-.467-.54.348-.613 1.406-.63 1.963V29.54c0 .91.113 1.366.877 1.844l4.302 2.672-.011-11.019v-.022c.011-.174 0-.349.022-.523.09-1.063.816-1.575 1.85-1.176l15.086 5.839c.945.354 1.715.663 2.666.326.72-.472.955-1.665.995-2.452.135-2.526.084-5.113 0-7.633-.05-1.541-.619-3.347-2.12-4.061zM25.843 28.489c.264-.754.191-1.49.259-2.267l.01-9.14v-.011c.04-1.103-.1-2.633-1.332-3.038-.748-.247-1.766-.056-2.468.26L6.978 21.221l-.022.011c-.799.287-1.699.006-1.71-.95 0-.434 0-.861.011-1.294.012-.86.686-1.153 1.322-1.513L27.097 5.94 27.012.01 4.004 12.971c-.512.365-1.052.702-1.57 1.062-.668.467-1.433 1.063-1.804 1.806-.439.872-.557 1.952-.568 2.913-.017 2.121.005 4.241.011 6.356 0 .461-.09 2.318.506 2.514.72.237 1.873-.033 2.564-.264l15.784-6.164c1.107-.467 2.17-.18 2.103 1.18v1.328c-.006.692-.422 1.046-1.012 1.3-.417.174-.838.337-1.266.489L0 32.128l.017 5.534 23.639-7.244c.972-.354 1.838-.911 2.192-1.93zM56.83 9.534a1.672 1.672 0 0 0-.82-.214c-.282 0-.557.073-.827.214a1.601 1.601 0 0 0-.63.624 1.695 1.695 0 0 0-.006 1.682c.147.27.355.478.625.624a1.657 1.657 0 0 0 1.67 0c.264-.146.472-.354.618-.624.152-.27.225-.546.225-.838 0-.293-.073-.574-.225-.844a1.565 1.565 0 0 0-.63-.624zm.394 2.165c-.124.22-.298.394-.517.518a1.408 1.408 0 0 1-2.103-1.215c0-.242.062-.478.19-.703.13-.225.305-.4.524-.518.225-.118.455-.185.691-.185.237 0 .467.062.686.185.225.118.4.293.523.518.124.225.186.461.186.703 0 .242-.062.472-.18.697z"/><path d="M56.296 11.216a.501.501 0 0 0-.151-.096.548.548 0 0 0 .376-.169.471.471 0 0 0 .056-.607.426.426 0 0 0-.23-.175c-.096-.034-.248-.05-.461-.05h-.624v1.81h.292v-.77h.174c.102 0 .18.023.231.062.079.056.18.197.304.422l.163.287h.354l-.22-.355a2.168 2.168 0 0 0-.27-.36zm-.382-.304h-.354v-.546h.331c.141 0 .242.011.293.028.05.023.096.05.124.096s.045.09.045.146a.226.226 0 0 1-.096.197c-.062.05-.174.073-.349.073z"/></g></svg>